# xmcd
#
# Track frame offsets:
# 150
# 12599
# 26020
# 45246
# 58667
# 73491
# 85584
# 97790
# 106919
# 127603
# 137298
# 152232
# 165788
# 180474
# 197053
# 209933
# 223840
# 236154
# 252490
# 263049
# 277873
# 290753
# 319240
# 332796
# 344840
#
# Disc length: 4782 seconds
#
#
# Revision: 0
# Processed by: cddbd v1.5.1PL0 Copyright (c) Steve Scherf et al.
# Submitted via: FreeRIP 2.11 
#
DISCID=7412ac19
DTITLE=Ray Charles - 25 Greatest Hits
DYEAR=1900
DGENRE=Blues
TTITLE0=A Tear Fell
TTITLE1=Crying Time
TTITLE2=I Can Stop Loving You
TTITLE3=Take These Chains From My Heart
TTITLE4=You Don't Know Me
TTITLE5=Together Again
TTITLE6=Someday (You'll Want Me To Want You)
TTITLE7=Hit The Road Jack
TTITLE8=What'd I Say
TTITLE9=Busted
TTITLE10=Here We Go Again
TTITLE11=You Are My Sunshine
TTITLE12=Born To Lose
TTITLE13=Georgia On My Mind
TTITLE14=My Heart Cries For You
TTITLE15=Teardrops In My Heart
TTITLE16=No One To Cry To
TTITLE17=Your Cheating Heart
TTITLE18=I'll Never stand in Your Way
TTITLE19=Hang Your Head In Shame
TTITLE20=Unchain My Heart
TTITLE21=I Gotta Woman
TTITLE22=Eleanor Rigby
TTITLE23=Don't Set Me Free
TTITLE24=Let's Get Stoned
EXTD=
EXTT0=
EXTT1=
EXTT2=
EXTT3=
EXTT4=
EXTT5=
EXTT6=
EXTT7=
EXTT8=
EXTT9=
EXTT10=
EXTT11=
EXTT12=
EXTT13=
EXTT14=
EXTT15=
EXTT16=
EXTT17=
EXTT18=
EXTT19=
EXTT20=
EXTT21=
EXTT22=
EXTT23=
EXTT24=
PLAYORDER=
